<svg width="138" height="36" viewBox="0 0 138 36" fill="none" xmlns="http://www.w3.org/2000/svg">
<rect x="0.5" y="0.5" width="137" height="35" rx="17.5" fill="#F9F9F9"/>
<path fill-rule="evenodd" clip-rule="evenodd" d="M24.5 13C24.0027 13 23.5258 13.1975 23.1742 13.5492C22.8225 13.9008 22.625 14.3777 22.625 14.875C22.625 15.2202 22.3452 15.5 22 15.5C21.6548 15.5 21.375 15.2202 21.375 14.875C21.375 14.0462 21.7042 13.2513 22.2903 12.6653C22.8763 12.0792 23.6712 11.75 24.5 11.75H29.5C29.8315 11.75 30.1495 11.8817 30.3839 12.1161C30.6183 12.3505 30.75 12.6685 30.75 13V23C30.75 23.3315 30.6183 23.6495 30.3839 23.8839C30.1495 24.1183 29.8315 24.25 29.5 24.25H24.5C24.0027 24.25 23.5258 24.4475 23.1742 24.7992C22.8225 25.1508 22.625 25.6277 22.625 26.125C22.625 26.4702 22.3452 26.75 22 26.75C21.6548 26.75 21.375 26.4702 21.375 26.125C21.375 25.2962 21.7042 24.5013 22.2903 23.9153C22.8763 23.3292 23.6712 23 24.5 23H29.5L29.5 13L24.5 13Z" fill="#2A2A2A"/>
<path fill-rule="evenodd" clip-rule="evenodd" d="M13.6161 12.1161C13.8505 11.8817 14.1685 11.75 14.5 11.75H19.5C20.3288 11.75 21.1237 12.0792 21.7097 12.6653C22.2958 13.2513 22.625 14.0462 22.625 14.875V26.125C22.625 26.4702 22.3452 26.75 22 26.75C21.6548 26.75 21.375 26.4702 21.375 26.125C21.375 25.6277 21.1775 25.1508 20.8258 24.7992C20.4742 24.4475 19.9973 24.25 19.5 24.25H14.5C14.1685 24.25 13.8505 24.1183 13.6161 23.8839C13.3817 23.6495 13.25 23.3315 13.25 23V13C13.25 12.6685 13.3817 12.3505 13.6161 12.1161ZM21.375 23.625V14.875C21.375 14.3777 21.1775 13.9008 20.8258 13.5492C20.4742 13.1975 19.9973 13 19.5 13L14.5 13V23H19.5C20.1801 23 20.8373 23.2217 21.375 23.625Z" fill="#2A2A2A"/>
<path d="M49.436 13.27L45.782 23H43.934L40.266 13.27H41.974L44.858 21.362L47.756 13.27H49.436ZM51.5827 14.264C51.2934 14.264 51.0507 14.166 50.8547 13.97C50.6587 13.774 50.5607 13.5313 50.5607 13.242C50.5607 12.9527 50.6587 12.71 50.8547 12.514C51.0507 12.318 51.2934 12.22 51.5827 12.22C51.8627 12.22 52.1007 12.318 52.2967 12.514C52.4927 12.71 52.5907 12.9527 52.5907 13.242C52.5907 13.5313 52.4927 13.774 52.2967 13.97C52.1007 14.166 51.8627 14.264 51.5827 14.264ZM52.3667 15.286V23H50.7707V15.286H52.3667ZM61.5321 18.954C61.5321 19.2433 61.5134 19.5047 61.4761 19.738H55.5821C55.6288 20.354 55.8574 20.8487 56.2681 21.222C56.6788 21.5953 57.1828 21.782 57.7801 21.782C58.6388 21.782 59.2454 21.4227 59.6001 20.704H61.3221C61.0888 21.4133 60.6641 21.9967 60.0481 22.454C59.4414 22.902 58.6854 23.126 57.7801 23.126C57.0428 23.126 56.3801 22.9627 55.7921 22.636C55.2134 22.3 54.7561 21.8333 54.4201 21.236C54.0934 20.6293 53.9301 19.9293 53.9301 19.136C53.9301 18.3427 54.0888 17.6473 54.4061 17.05C54.7328 16.4433 55.1854 15.9767 55.7641 15.65C56.3521 15.3233 57.0241 15.16 57.7801 15.16C58.5081 15.16 59.1568 15.3187 59.7261 15.636C60.2954 15.9533 60.7388 16.4013 61.0561 16.98C61.3734 17.5493 61.5321 18.2073 61.5321 18.954ZM59.8661 18.45C59.8568 17.862 59.6468 17.3907 59.2361 17.036C58.8254 16.6813 58.3168 16.504 57.7101 16.504C57.1594 16.504 56.6881 16.6813 56.2961 17.036C55.9041 17.3813 55.6708 17.8527 55.5961 18.45H59.8661ZM73.4627 15.286L71.0687 23H69.3887L67.8347 17.302L66.2807 23H64.6007L62.1927 15.286H63.8167L65.4267 21.488L67.0647 15.286H68.7307L70.2987 21.46L71.8947 15.286H73.4627Z" fill="#2A2A2A"/>
<path d="M122.692 15.9422L116.442 22.1922C116.384 22.2503 116.315 22.2964 116.239 22.3279C116.163 22.3593 116.082 22.3755 116 22.3755C115.918 22.3755 115.837 22.3593 115.761 22.3279C115.685 22.2964 115.616 22.2503 115.558 22.1922L109.308 15.9422C109.191 15.8249 109.125 15.6659 109.125 15.5C109.125 15.3341 109.191 15.1751 109.308 15.0578C109.425 14.9405 109.584 14.8747 109.75 14.8747C109.916 14.8747 110.075 14.9405 110.192 15.0578L116 20.8664L121.808 15.0578C121.866 14.9997 121.935 14.9537 122.011 14.9223C122.087 14.8908 122.168 14.8747 122.25 14.8747C122.332 14.8747 122.413 14.8908 122.489 14.9223C122.565 14.9537 122.634 14.9997 122.692 15.0578C122.75 15.1159 122.796 15.1848 122.828 15.2607C122.859 15.3366 122.875 15.4179 122.875 15.5C122.875 15.5821 122.859 15.6634 122.828 15.7393C122.796 15.8152 122.75 15.8841 122.692 15.9422Z" fill="#2A2A2A"/>
<rect x="0.5" y="0.5" width="137" height="35" rx="17.5" stroke="#E3E3E3"/>
</svg>
