<svg width="48" height="48" viewBox="0 0 48 48" fill="none" xmlns="http://www.w3.org/2000/svg">
  <rect x="0.5" y="0.5" width="47" height="47" rx="15.5" fill="#F9F9F9"/>
  <path d="M34.7075 18.2925L27.7075 11.2925C27.6146 11.1997 27.5042 11.1261 27.3829 11.0759C27.2615 11.0257 27.1314 10.9999 27 11H15C14.4696 11 13.9609 11.2107 13.5858 11.5858C13.2107 11.9609 13 12.4696 13 13V35C13 35.5304 13.2107 36.0391 13.5858 36.4142C13.9609 36.7893 14.4696 37 15 37H33C33.5304 37 34.0391 36.7893 34.4142 36.4142C34.7893 36.0391 35 35.5304 35 35V19C35.0001 18.8686 34.9743 18.7385 34.9241 18.6172C34.8739 18.4958 34.8003 18.3854 34.7075 18.2925ZM28 14.4138L31.5863 18H28V14.4138ZM33 35H15V13H26V19C26 19.2652 26.1054 19.5196 26.2929 19.7071C26.4804 19.8946 26.7348 20 27 20H33V35ZM29 25C29 25.2652 28.8946 25.5196 28.7071 25.7071C28.5196 25.8946 28.2652 26 28 26H20C19.7348 26 19.4804 25.8946 19.2929 25.7071C19.1054 25.5196 19 25.2652 19 25C19 24.7348 19.1054 24.4804 19.2929 24.2929C19.4804 24.1054 19.7348 24 20 24H28C28.2652 24 28.5196 24.1054 28.7071 24.2929C28.8946 24.4804 29 24.7348 29 25ZM29 29C29 29.2652 28.8946 29.5196 28.7071 29.7071C28.5196 29.8946 28.2652 30 28 30H20C19.7348 30 19.4804 29.8946 19.2929 29.7071C19.1054 29.5196 19 29.2652 19 29C19 28.7348 19.1054 28.4804 19.2929 28.2929C19.4804 28.1054 19.7348 28 20 28H28C28.2652 28 28.5196 28.1054 28.7071 28.2929C28.8946 28.4804 29 28.7348 29 29Z" fill="#2A2A2A"/>
  <rect x="0.5" y="0.5" width="47" height="47" rx="15.5" stroke="#E3E3E3"/>
</svg>
