<svg width="20" height="20" viewBox="0 0 20 20" fill="none" xmlns="http://www.w3.org/2000/svg">
<path fill-rule="evenodd" clip-rule="evenodd" d="M1.875 6.25C1.875 5.90482 2.15482 5.625 2.5 5.625H16.875C17.2065 5.625 17.5245 5.7567 17.7589 5.99112C17.9933 6.22554 18.125 6.54348 18.125 6.875V15.6945C18.125 16.0076 18.0006 16.3079 17.7792 16.5292C17.5579 16.7506 17.2576 16.875 16.9445 16.875H3.07656L3.07488 16.875C2.75691 16.8741 2.45222 16.7474 2.22738 16.5226C2.00255 16.2978 1.87586 15.9931 1.875 15.6751L1.875 15.6734V6.25ZM3.125 6.875V15.625H16.875V6.875H3.125Z" fill="#2A2A2A"/>
<path fill-rule="evenodd" clip-rule="evenodd" d="M2.24112 3.49112C2.47554 3.2567 2.79348 3.125 3.125 3.125H7.24141C7.57249 3.12515 7.89027 3.25665 8.12451 3.49063L10.4419 5.80806C10.686 6.05214 10.686 6.44786 10.4419 6.69194C10.1979 6.93602 9.80214 6.93602 9.55806 6.69194L7.24112 4.375L3.125 4.375L3.125 6.25C3.125 6.59518 2.84518 6.875 2.5 6.875C2.15482 6.875 1.875 6.59518 1.875 6.25V4.375C1.875 4.04348 2.0067 3.72554 2.24112 3.49112Z" fill="#2A2A2A"/>
</svg>
