<svg width="44" height="44" viewBox="0 0 44 44" fill="none" xmlns="http://www.w3.org/2000/svg">
  <rect width="44" height="44" rx="22" fill="#6A28EA" fill-opacity="0.1"/>
  <path d="M27.625 14.5H24.5C24.1685 14.5 23.8505 14.6317 23.6161 14.8661C23.3817 15.1005 23.25 15.4185 23.25 15.75V28.25C23.25 28.5815 23.3817 28.8995 23.6161 29.1339C23.8505 29.3683 24.1685 29.5 24.5 29.5H27.625C27.9565 29.5 28.2745 29.3683 28.5089 29.1339C28.7433 28.8995 28.875 28.5815 28.875 28.25V15.75C28.875 15.4185 28.7433 15.1005 28.5089 14.8661C28.2745 14.6317 27.9565 14.5 27.625 14.5ZM27.625 28.25H24.5V15.75H27.625V28.25ZM19.5 14.5H16.375C16.0435 14.5 15.7255 14.6317 15.4911 14.8661C15.2567 15.1005 15.125 15.4185 15.125 15.75V28.25C15.125 28.5815 15.2567 28.8995 15.4911 29.1339C15.7255 29.3683 16.0435 29.5 16.375 29.5H19.5C19.8315 29.5 20.1495 29.3683 20.3839 29.1339C20.6183 28.8995 20.75 28.5815 20.75 28.25V15.75C20.75 15.4185 20.6183 15.1005 20.3839 14.8661C20.1495 14.6317 19.8315 14.5 19.5 14.5ZM19.5 28.25H16.375V15.75H19.5V28.25Z" fill="#6A28EA"/>
</svg>
