<svg width="44" height="44" viewBox="0 0 44 44" fill="none" xmlns="http://www.w3.org/2000/svg">
<rect width="44" height="44" rx="22" fill="#6A28EA" fill-opacity="0.1"/>
<path d="M30.1563 20.9449L18.9 14.059C18.7102 13.9428 18.4929 13.8793 18.2704 13.8752C18.0479 13.8711 17.8283 13.9264 17.6344 14.0355C17.4423 14.143 17.2822 14.2996 17.1708 14.4894C17.0593 14.6791 17.0003 14.8951 17 15.1152V28.8855C17.0014 29.2157 17.1339 29.5317 17.3683 29.7642C17.6027 29.9967 17.9199 30.1266 18.25 30.1254C18.4804 30.1253 18.7064 30.0618 18.9031 29.9418L30.1563 23.0559C30.3371 22.9456 30.4866 22.7907 30.5904 22.606C30.6941 22.4213 30.7486 22.213 30.7486 22.0012C30.7486 21.7893 30.6941 21.5811 30.5904 21.3964C30.4866 21.2117 30.3371 21.0567 30.1563 20.9465V20.9449ZM18.25 28.8707V15.1254L29.4867 22.0004L18.25 28.8707Z" fill="#6A28EA"/>
</svg>
