<svg width="32" height="32" viewBox="0 0 32 32" fill="none" xmlns="http://www.w3.org/2000/svg">
  <rect x="0.5" y="0.5" width="31" height="31" rx="7.5" fill="#F9F9F9"/>
  <path d="M25 16C25 16.1989 24.921 16.3897 24.7803 16.5303C24.6397 16.671 24.4489 16.75 24.25 16.75H13.75C13.5511 16.75 13.3603 16.671 13.2197 16.5303C13.079 16.3897 13 16.1989 13 16C13 15.8011 13.079 15.6103 13.2197 15.4697C13.3603 15.329 13.5511 15.25 13.75 15.25H24.25C24.4489 15.25 24.6397 15.329 24.7803 15.4697C24.921 15.6103 25 15.8011 25 16ZM13.75 10.75H24.25C24.4489 10.75 24.6397 10.671 24.7803 10.5303C24.921 10.3897 25 10.1989 25 10C25 9.80109 24.921 9.61032 24.7803 9.46967C24.6397 9.32902 24.4489 9.25 24.25 9.25H13.75C13.5511 9.25 13.3603 9.32902 13.2197 9.46967C13.079 9.61032 13 9.80109 13 10C13 10.1989 13.079 10.3897 13.2197 10.5303C13.3603 10.671 13.5511 10.75 13.75 10.75ZM24.25 21.25H13.75C13.5511 21.25 13.3603 21.329 13.2197 21.4697C13.079 21.6103 13 21.8011 13 22C13 22.1989 13.079 22.3897 13.2197 22.5303C13.3603 22.671 13.5511 22.75 13.75 22.75H24.25C24.4489 22.75 24.6397 22.671 24.7803 22.5303C24.921 22.3897 25 22.1989 25 22C25 21.8011 24.921 21.6103 24.7803 21.4697C24.6397 21.329 24.4489 21.25 24.25 21.25ZM8.08562 9.17125L8.5 8.96312V13.75C8.5 13.9489 8.57901 14.1397 8.71967 14.2803C8.86032 14.421 9.05108 14.5 9.25 14.5C9.44891 14.5 9.63967 14.421 9.78033 14.2803C9.92098 14.1397 10 13.9489 10 13.75V7.75C10.0001 7.62209 9.96746 7.49628 9.90523 7.38454C9.84299 7.27279 9.75321 7.17882 9.64442 7.11155C9.53563 7.04429 9.41144 7.00596 9.28366 7.00022C9.15588 6.99448 9.02876 7.02151 8.91437 7.07875L7.41437 7.82875C7.23634 7.91776 7.10097 8.07385 7.03803 8.26268C7.00686 8.35617 6.99442 8.45489 7.0014 8.5532C7.00839 8.65151 7.03467 8.74747 7.07875 8.83562C7.12282 8.92377 7.18383 9.00238 7.25828 9.06695C7.33273 9.13153 7.41918 9.1808 7.51267 9.21197C7.7015 9.27491 7.90759 9.26026 8.08562 9.17125ZM11.4784 18.6925C11.437 18.3955 11.3359 18.1099 11.1812 17.8529C11.0265 17.5959 10.8215 17.3729 10.5784 17.1972C10.0916 16.8437 9.48691 16.6921 8.89089 16.7743C8.29488 16.8564 7.75371 17.1658 7.38062 17.6378C7.23802 17.8209 7.12509 18.0253 7.04593 18.2434C7.0046 18.3373 6.98297 18.4387 6.98239 18.5413C6.9818 18.6439 7.00227 18.7455 7.04253 18.8399C7.08278 18.9342 7.14197 19.0194 7.21643 19.0899C7.29089 19.1605 7.37904 19.2151 7.47543 19.2502C7.57181 19.2854 7.67438 19.3003 7.7768 19.2943C7.87921 19.2882 7.97929 19.2612 8.07084 19.2149C8.16239 19.1686 8.24347 19.104 8.30906 19.0251C8.37466 18.9462 8.42337 18.8547 8.45218 18.7562C8.47843 18.6843 8.51576 18.617 8.56281 18.5566C8.69511 18.3917 8.88588 18.2842 9.09542 18.2565C9.30496 18.2287 9.51714 18.2828 9.68781 18.4075C9.76991 18.4656 9.83933 18.5397 9.89188 18.6255C9.94442 18.7112 9.97897 18.8067 9.99343 18.9062C10.0067 19.0018 10.0004 19.0991 9.97515 19.1922C9.94986 19.2853 9.90601 19.3724 9.84625 19.4481C9.84351 19.4514 9.84101 19.4548 9.83875 19.4584L7.14906 23.0509C7.06571 23.1624 7.01504 23.2949 7.00271 23.4336C6.99038 23.5722 7.01688 23.7116 7.07925 23.836C7.14163 23.9605 7.2374 24.0651 7.35586 24.1382C7.47432 24.2113 7.61079 24.25 7.75 24.25H10.75C10.9489 24.25 11.1397 24.171 11.2803 24.0303C11.421 23.8897 11.5 23.6989 11.5 23.5C11.5 23.3011 11.421 23.1103 11.2803 22.9697C11.1397 22.829 10.9489 22.75 10.75 22.75H9.25L11.0387 20.3566C11.2201 20.123 11.3525 19.8552 11.4281 19.5693C11.5036 19.2834 11.5207 18.9852 11.4784 18.6925Z" fill="#2A2A2A"/>
  <rect x="0.5" y="0.5" width="31" height="31" rx="7.5" stroke="#E3E3E3"/>
</svg>
