<svg width="20" height="20" viewBox="0 0 20 20" fill="none" xmlns="http://www.w3.org/2000/svg">
<path d="M17.5 10C17.5 10.1658 17.4341 10.3247 17.3169 10.4419C17.1997 10.5592 17.0407 10.625 16.875 10.625H8.12497C7.95921 10.625 7.80024 10.5592 7.68303 10.4419C7.56582 10.3247 7.49997 10.1658 7.49997 10C7.49997 9.83424 7.56582 9.67527 7.68303 9.55806C7.80024 9.44085 7.95921 9.37501 8.12497 9.37501H16.875C17.0407 9.37501 17.1997 9.44085 17.3169 9.55806C17.4341 9.67527 17.5 9.83424 17.5 10ZM8.12497 5.62501H16.875C17.0407 5.62501 17.1997 5.55916 17.3169 5.44195C17.4341 5.32474 17.5 5.16577 17.5 5.00001C17.5 4.83424 17.4341 4.67527 17.3169 4.55806C17.1997 4.44085 17.0407 4.37501 16.875 4.37501H8.12497C7.95921 4.37501 7.80024 4.44085 7.68303 4.55806C7.56582 4.67527 7.49997 4.83424 7.49997 5.00001C7.49997 5.16577 7.56582 5.32474 7.68303 5.44195C7.80024 5.55916 7.95921 5.62501 8.12497 5.62501ZM16.875 14.375H8.12497C7.95921 14.375 7.80024 14.4409 7.68303 14.5581C7.56582 14.6753 7.49997 14.8342 7.49997 15C7.49997 15.1658 7.56582 15.3247 7.68303 15.4419C7.80024 15.5592 7.95921 15.625 8.12497 15.625H16.875C17.0407 15.625 17.1997 15.5592 17.3169 15.4419C17.4341 15.3247 17.5 15.1658 17.5 15C17.5 14.8342 17.4341 14.6753 17.3169 14.5581C17.1997 14.4409 17.0407 14.375 16.875 14.375ZM3.40466 4.30938L3.74997 4.13594V8.12501C3.74997 8.29077 3.81582 8.44974 3.93303 8.56695C4.05024 8.68416 4.20921 8.75001 4.37497 8.75001C4.54073 8.75001 4.69971 8.68416 4.81692 8.56695C4.93413 8.44974 4.99997 8.29077 4.99997 8.12501V3.12501C5.00005 3.01841 4.97286 2.91358 4.921 2.82045C4.86914 2.72733 4.79432 2.64902 4.70366 2.59297C4.613 2.53691 4.50951 2.50497 4.40303 2.50019C4.29655 2.4954 4.19061 2.51793 4.09529 2.56563L2.84529 3.19063C2.69693 3.26481 2.58412 3.39488 2.53167 3.55224C2.5057 3.63015 2.49532 3.71242 2.50115 3.79434C2.50697 3.87626 2.52887 3.95623 2.5656 4.02969C2.60233 4.10315 2.65317 4.16866 2.71521 4.22247C2.77725 4.27628 2.84929 4.31734 2.9272 4.34331C3.08456 4.39576 3.25631 4.38356 3.40466 4.30938ZM6.232 12.2438C6.19744 11.9962 6.11319 11.7582 5.9843 11.5441C5.85541 11.33 5.68456 11.1441 5.482 10.9977C5.07631 10.7031 4.5724 10.5768 4.07572 10.6452C3.57904 10.7137 3.12807 10.9715 2.81716 11.3648C2.69833 11.5174 2.60421 11.6877 2.53826 11.8695C2.50381 11.9478 2.48579 12.0323 2.4853 12.1178C2.48481 12.2033 2.50187 12.2879 2.53542 12.3666C2.56896 12.4452 2.61829 12.5161 2.68034 12.5749C2.74239 12.6338 2.81585 12.6792 2.89617 12.7085C2.97649 12.7378 3.06196 12.7503 3.14731 12.7452C3.23265 12.7402 3.31605 12.7177 3.39234 12.6791C3.46864 12.6405 3.5362 12.5867 3.59086 12.5209C3.64552 12.4552 3.68612 12.3789 3.71013 12.2969C3.73201 12.2369 3.76311 12.1808 3.80232 12.1305C3.91257 11.9931 4.07154 11.9035 4.24616 11.8804C4.42078 11.8573 4.59759 11.9023 4.73982 12.0063C4.80823 12.0546 4.86609 12.1164 4.90987 12.1879C4.95366 12.2593 4.98245 12.339 4.99451 12.4219C5.00553 12.5015 5.00035 12.5826 4.97927 12.6602C4.95819 12.7378 4.92166 12.8103 4.87185 12.8734C4.86957 12.8762 4.86748 12.879 4.8656 12.882L2.62419 15.8758C2.55474 15.9687 2.51251 16.0791 2.50223 16.1947C2.49196 16.3102 2.51405 16.4263 2.56602 16.53C2.618 16.6337 2.69781 16.7209 2.79653 16.7819C2.89525 16.8428 3.00897 16.875 3.12497 16.875H5.62497C5.79073 16.875 5.94971 16.8092 6.06692 16.6919C6.18413 16.5747 6.24997 16.4158 6.24997 16.25C6.24997 16.0842 6.18413 15.9253 6.06692 15.8081C5.94971 15.6909 5.79073 15.625 5.62497 15.625H4.37497L5.8656 13.6305C6.01673 13.4358 6.12707 13.2127 6.19002 12.9744C6.25297 12.7362 6.26725 12.4877 6.232 12.2438Z" fill="#2A2A2A"/>
</svg>
