<svg width="130" height="37" viewBox="0 0 82 24" fill="none" xmlns="http://www.w3.org/2000/svg">
<g clip-path="url(#clip0_2107_177694)">
<g clip-path="url(#clip1_2107_177694)">
<path d="M40.1507 23.0315C39.7217 23.0336 39.2973 22.9401 38.906 22.7574C38.5147 22.5747 38.1656 22.307 37.8821 21.9723C37.1741 22.6382 36.1985 23.0315 35.3318 23.0315C34.3522 23.0315 33.5327 22.6002 32.9848 21.9076C32.7305 21.5853 32.5406 21.2135 32.4263 20.8139C32.3121 20.4143 32.2757 19.9949 32.3194 19.5805C31.2384 21.6969 30.2251 23.0287 29.0401 23.0287C28.6965 23.0327 28.3565 22.9555 28.0458 22.8029C27.7351 22.6503 27.4617 22.4264 27.2464 22.1479C26.6715 21.4286 26.3831 20.3082 26.3831 18.8465C26.3831 13.199 28.6239 9.25284 31.7019 9.25284C34.1961 9.25284 33.7286 11.6263 32.8558 12.2213C32.8558 11.8413 32.4025 11.4437 31.7019 11.4437C30.1305 11.4437 28.2051 14.7556 28.2051 18.5711C28.2051 19.8966 28.4274 21.2115 29.3272 21.2115C30.0927 21.2115 30.8946 19.7898 32.391 16.0712C33.3429 13.7062 33.4719 12.7228 34.2461 12.7228C34.3765 12.7229 34.5052 12.7528 34.6232 12.8104C34.7412 12.868 34.8455 12.9519 34.9288 13.0562C35.0121 13.1604 35.0723 13.2824 35.1052 13.4136C35.138 13.5447 35.1427 13.6818 35.119 13.8151C35.1 13.9218 34.3123 18.2024 34.0738 19.6248C33.8475 20.9762 34.3346 21.7608 35.2014 21.7608C36.3201 21.7608 36.9761 20.5604 37.0876 19.9507C37.4044 18.227 37.7274 14.6046 38.1287 12.3112C38.3989 10.7729 38.6826 9.59632 39.6771 9.59632C40.4878 9.59632 40.7519 10.2587 40.7519 11.0988C40.7519 13.2953 39.2353 17.6166 38.8232 19.9198C38.6272 21.0142 39.2616 21.6056 40.0095 21.6056C40.81 21.6056 42.12 20.9032 42.7631 17.3019L44.5102 17.6397C43.6164 22.6424 40.9472 23.0315 40.1507 23.0315Z" fill="#5817D8"/>
<path d="M72.8508 23.0315C71.8705 23.0315 71.051 22.6002 70.5031 21.9076C70.2488 21.5853 70.0589 21.2135 69.9447 20.8139C69.8304 20.4143 69.794 19.9949 69.8377 19.5805C68.7568 21.6969 67.7434 23.0287 66.5584 23.0287C66.2148 23.0327 65.8748 22.9554 65.5641 22.8029C65.2534 22.6503 64.9801 22.4263 64.7648 22.1479C64.1898 21.4286 63.9014 20.3082 63.9014 18.8465C63.9014 13.199 66.1423 9.25284 69.2202 9.25284C71.7144 9.25284 71.2469 11.6263 70.3741 12.2213C70.3741 11.8413 69.9215 11.4437 69.2202 11.4437C67.6488 11.4437 65.7234 14.7556 65.7234 18.5711C65.7234 19.8966 65.9463 21.2115 66.8455 21.2115C67.611 21.2115 68.4136 19.7898 69.91 16.0712C70.8612 13.7062 70.9909 12.7228 71.7644 12.7228C71.8948 12.7229 72.0236 12.7528 72.1416 12.8104C72.2596 12.8681 72.3639 12.9519 72.4473 13.0562C72.5306 13.1604 72.5909 13.2824 72.6239 13.4135C72.6568 13.5447 72.6616 13.6818 72.638 13.8151C72.6184 13.9218 71.8273 18.2024 71.5928 19.6248C71.3665 20.9762 71.8529 21.7608 72.7197 21.7608L72.8508 23.0315Z" fill="#5817D8"/>
<path d="M72.7196 21.7636C73.7911 21.7636 74.2363 20.6552 74.3653 19.9535C74.5045 19.1984 74.7653 17.0097 74.9058 15.8436C75.7462 8.9501 76.8879 0.979736 78.9072 0.979736C81.2515 0.979736 79.4882 7.13083 77.2433 15.5486C76.6751 17.677 76.1921 19.5321 76.0989 20.153C76.0104 20.9538 76.4583 21.5993 77.1197 21.5993C78.4316 21.5993 79.447 19.4829 79.447 17.3047C80.2766 17.3047 81.1299 18.307 81.1299 19.1211C81.1299 20.8238 79.3356 23.0315 77.4257 23.0315C77.0132 23.0334 76.6048 22.9471 76.2258 22.7779C75.8469 22.6087 75.5054 22.3603 75.2226 22.0481C74.6383 22.6599 73.7195 23.0315 72.8486 23.0315L72.0596 22.3614L72.7196 21.7636Z" fill="#5817D8"/>
<path d="M53.2083 19.2778C52.8928 20.514 52.38 21.6801 51.2315 21.6801C50.4418 21.6801 50.0033 21.1125 50.0033 20.4276C50.0033 19.0973 51.3545 15.3281 51.3545 12.982C51.3545 10.9485 50.3567 9.59633 48.6157 9.59633C47.5962 9.59633 46.4538 10.6682 45.2202 12.786L45.4817 11.1473C45.6452 10.1365 44.7851 9.28937 43.509 9.28937C43.7407 10.1098 43.6921 10.9913 43.3786 12.786C42.7422 16.4246 41.7788 21.9315 41.7781 21.9364C41.7536 22.057 41.7525 22.1815 41.775 22.3025C41.7974 22.4235 41.8429 22.5386 41.9088 22.641C41.9747 22.7435 42.0596 22.8312 42.1586 22.899C42.2576 22.9667 42.3686 23.0133 42.4851 23.0358C42.6016 23.0583 42.7213 23.0563 42.8371 23.03C42.9529 23.0036 43.0624 22.9535 43.1593 22.8824C43.2562 22.8114 43.3384 22.721 43.4011 22.6164C43.4638 22.5118 43.5058 22.3953 43.5245 22.2736C43.8981 20.186 44.6777 16.8776 45.737 14.5266C46.818 12.1314 47.8901 10.9787 48.4995 10.9787C49.0102 10.9787 49.3237 11.6607 49.3237 12.8373C49.3237 14.5266 48.0354 17.9362 48.0354 20.0294C48.0354 22.1226 49.4629 23.0287 51.1863 23.0287C52.3874 23.0287 53.5717 22.379 54.1372 21.4131C53.9548 21.116 53.3326 19.6873 53.2083 19.2778Z" fill="#5817D8"/>
<path d="M64.123 18.758C64.0189 19.3417 63.5886 21.6246 62.1266 21.6246C61.3403 21.6246 60.7991 20.8821 60.9903 19.7983C61.774 15.3632 62.6401 10.6963 62.6408 10.6921C62.6621 10.5728 62.6605 10.4503 62.6363 10.3317C62.6121 10.213 62.5656 10.1005 62.4996 10.0005C62.4335 9.9005 62.3491 9.81502 62.2513 9.74892C62.1535 9.68282 62.0441 9.63741 61.9294 9.61527C61.8147 9.59313 61.6969 9.5947 61.5828 9.61989C61.4686 9.64508 61.3604 9.6934 61.2642 9.76208C61.168 9.83076 61.0858 9.91847 61.0223 10.0202C60.9587 10.1219 60.915 10.2357 60.8937 10.3549C60.6086 11.9494 59.7452 14.7963 58.6461 17.1522C57.2584 20.1256 56.1147 21.5529 55.279 21.5529C54.525 21.5529 54.4865 20.7739 54.6473 20.0497C55.3634 16.8235 57.0199 13.0817 57.0199 11.2477C57.0199 10.1133 56.37 9.14816 55.2094 9.14816C54.5129 9.14816 53.9096 9.75786 53.9096 10.6858C54.4257 10.6858 54.8844 11.1072 54.8844 11.7541C54.8844 12.9216 53.692 16.218 53.0158 19.2658C52.7665 20.3897 52.9307 21.4328 53.4657 22.1324C53.7799 22.5426 54.3663 23.0322 55.3783 23.0322C56.6849 23.0322 57.9786 21.9715 59.2372 19.8713C59.2281 20.2849 59.299 20.6962 59.4457 21.0807C59.5923 21.4653 59.8117 21.8153 60.0909 22.1101C60.37 22.4049 60.7033 22.6384 61.0709 22.7968C61.4384 22.9552 61.8328 23.0352 62.2307 23.0322C63.717 23.0322 65.0411 21.914 65.3748 20.4108C65.2174 20.259 64.4506 19.1682 64.123 18.758Z" fill="#5817D8"/>
<path d="M16.4115 1.12724C16.4115 0.861724 16.046 0.0736084 15.2975 0.0736084C13.868 0.0736084 13.3491 1.53113 12.4256 6.83159C11.721 10.8705 11.2298 13.6226 10.911 15.4095C10.2658 19.0235 8.90854 21.0142 6.5582 21.0142C4.7713 21.0142 3.70388 19.6725 3.70388 18.9329L3.6978 18.9385C3.32556 18.9385 2.97156 19.4759 2.97156 20.3602C2.97156 22.1668 4.30785 23.5913 6.3204 23.5913C9.29295 23.5913 11.6102 21.7707 12.756 15.3491C13.0938 13.461 13.7943 9.33642 14.3578 6.10529C14.8577 3.22818 15.2488 1.12724 16.4115 1.12724Z" fill="#5817D8"/>
<path d="M9.1112 3.6419C13.9754 3.6419 18.12 5.66277 21.0885 5.66277C22.8065 5.66277 24.9393 4.60914 24.9393 3.20781C20.065 4.2214 15.1151 2.23145 9.94149 2.23145C3.35459 2.23145 0.0625 4.9456 0.0625 8.71338C0.0625 11.6818 2.25205 12.7649 3.57551 12.7649C5.14285 12.7649 5.95625 11.3194 5.48605 10.3648C4.26055 11.0173 2.54525 10.3423 2.54525 8.35093C2.54458 5.59674 5.42727 3.6419 9.1112 3.6419Z" fill="#5817D8"/>
<path d="M26.6324 19.0572C26.3007 20.4621 25.6048 21.6731 24.5252 21.6731C23.7335 21.6731 23.1558 21.0458 23.4112 19.5496C23.9679 16.2848 24.8826 12.2367 25.2677 10.1611C25.4305 9.28728 24.3563 8.65439 23.7895 9.31818C22.2499 11.115 20.3441 11.8146 19.349 11.8146C18.4829 11.8146 17.8728 11.4177 17.8728 10.6099C17.8728 9.85553 18.3619 9.45445 18.7511 9.45445V7.60709C17.3709 7.60709 16.0319 8.75133 16.0319 10.7244C16.0319 12.5346 17.1466 13.5137 18.6788 13.5137C20.0421 13.5137 21.8 12.7088 22.9957 11.7198C22.9957 11.7198 21.9871 17.344 21.6365 19.3059C21.2858 21.2678 22.6863 23.0287 24.5908 23.0287C25.692 23.0287 26.7067 22.4246 27.4579 21.3787C27.3512 20.6728 26.6324 19.0572 26.6324 19.0572Z" fill="#5817D8"/>
<path d="M14.8367 23.0673C13.8267 23.0673 13.439 22.0263 13.439 21.1848C16.3338 21.1848 19.7401 14.1929 19.7401 11.0054C19.7401 10.0402 19.3456 9.4523 18.722 9.4523L18.0228 8.64311L18.722 7.60775C19.0632 7.60411 19.3998 7.68945 19.7011 7.85597C20.0024 8.02248 20.2588 8.26485 20.4467 8.56093C21.45 10.0817 21.0446 13.0656 20.1975 15.347C18.2403 20.6173 16.4554 23.0673 14.8367 23.0673Z" fill="#5817D8"/>
<path d="M41.2863 7.57232C41.833 7.00394 41.833 6.08242 41.2863 5.51405C40.7397 4.94567 39.8534 4.94568 39.3067 5.51405C38.76 6.08243 38.76 7.00394 39.3067 7.57232C39.8534 8.14069 40.7397 8.14069 41.2863 7.57232Z" fill="#5817D8"/>
</g>
</g>
<defs>
<clipPath id="clip0_2107_177694">
<rect width="81.0694" height="23.5163" fill="white" transform="translate(0.0625 0.0736084)"/>
</clipPath>
<clipPath id="clip1_2107_177694">
<rect width="81.0694" height="23.5163" fill="white" transform="translate(0.0625 0.0736084)"/>
</clipPath>
</defs>
</svg>
